<?xml version="1.0" encoding="utf-8"?>
<!-- Generator: Adobe Illustrator 24.2.1, SVG Export Plug-In . SVG Version: 6.00 Build 0)  -->
<svg version="1.1" id="Layer_1" xmlns="http://www.w3.org/2000/svg" xmlns:xlink="http://www.w3.org/1999/xlink" x="0px" y="0px"
	 viewBox="0 0 216 216" style="enable-background:new 0 0 216 216;" xml:space="preserve">
<style type="text/css">
	.st0{fill:#D4D6C6;}
</style>
<g>
	<path class="st0" d="M13,85.2c1.4-5,6.6-7.9,11.6-6.5c5,1.4,7.9,6.6,6.5,11.6c-1.4,5-6.6,7.9-11.6,6.5C14.5,95.4,11.6,90.2,13,85.2
		z M16,86.1c-0.9,3.3,1,6.8,4.3,7.7c3.3,0.9,6.8-1,7.7-4.3c0.9-3.3-1-6.8-4.3-7.7C20.3,80.8,16.9,82.8,16,86.1z"/>
	<path class="st0" d="M38.7,72.1l-3.9,7.1l-16.4-9.1l3.2-5.7c1.5-2.6,4.8-3.6,7.4-2.1c1,0.6,1.8,1.4,2.3,2.4c1.6-0.9,3.6-1,5.3,0
		C39.2,66.2,40.1,69.5,38.7,72.1z M24.2,65.9l-1.6,3l4.1,2.3l1.6-3c0.6-1.1,0.2-2.6-0.9-3.2C26.3,64.4,24.9,64.8,24.2,65.9z
		 M29.4,72.7l4.1,2.3l2.4-4.3c0.6-1.1,0.2-2.5-0.9-3.2c-1.1-0.6-2.5-0.2-3.2,0.9L29.4,72.7z"/>
	<path class="st0" d="M36,57.9c-1.7,0.1-2.7-0.5-3.8-1.3c-2.2-1.8-2-5.7-0.2-7.9c1.8-2.2,5.5-3.2,7-1.9l-1.2,3.1
		c-0.9-0.7-2.4-0.4-3.4,0.8c-1,1.2-1.1,2.8-0.2,3.5c0.9,0.7,2.3,0.4,3.6-0.7c1.4-1.2,2.1-1.7,3-2.2c1.4-0.7,3.3-1,5.7,1
		c2.4,2,2.3,6.2,0.2,8.6c-2,2.4-5.9,3.5-7.7,1.9l1.2-3.1c1.1,0.9,3.2,0.2,4.1-0.9c1-1.2,1.2-3.3,0.1-4.2c-1.4-1.2-3-0.1-4.3,0.7
		C38.5,56.7,37.4,57.8,36,57.9z"/>
	<path class="st0" d="M49.8,36.2l-4.8,4l3,3.6l4-3.3l2,2.4l-4,3.3l3,3.6l5.6-4.7l1.2,3.1l-7.2,6l-12-14.4l8-6.7L49.8,36.2z"/>
	<path class="st0" d="M65.3,44.5L62.6,46l-9.1-16.4l5.7-3.2c3.4-1.9,7.7-0.7,9.6,2.7c1.3,2.4,1.1,5.2-0.3,7.3l5.5,3.2l-3.6,2
		l-4.7-2.7l-2.6,1.4L65.3,44.5z M60.7,29.2l-3,1.6l3.8,6.8l3-1.6c1.9-1.1,2.6-3.4,1.5-5.3C65,28.8,62.6,28.1,60.7,29.2z"/>
	<path class="st0" d="M83.1,36.4L69.5,21l3.5-1.1l7.9,9.5l1-12.3l3.5-1.1L83.1,36.4z"/>
	<path class="st0" d="M100.6,17.2l-6.2,0.7l0.5,4.7l5.2-0.6l0.3,3.1l-5.2,0.6l0.5,4.7l7.3-0.8l-0.7,3.2l-9.3,1L91,15.1l10.4-1.2
		L100.6,17.2z"/>
	<path class="st0" d="M114.1,27.8c1.4,0.1,2.5,1.4,2.4,2.8c-0.1,1.4-1.4,2.5-2.8,2.4s-2.5-1.4-2.4-2.8
		C111.4,28.7,112.7,27.7,114.1,27.8z"/>
	<path class="st0" d="M132.6,17.3l-4.6,18.2l-3-0.8l4.6-18.2L132.6,17.3z"/>
	<path class="st0" d="M143.9,21.2c4.7,2.1,6.8,7.6,4.8,12.3c-2,4.7-7.5,6.9-12.2,4.9l-4.9-2.1L139,19L143.9,21.2z M142.6,24l-2-0.9
		l-5,11.5l2,0.9c3.1,1.3,6.8-0.2,8.1-3.3C147.1,29.1,145.7,25.4,142.6,24z"/>
	<path class="st0" d="M163.5,35.7l-5.2-3.5l-2.6,3.9L160,39l-1.8,2.6l-4.3-2.9l-2.6,3.9l6,4.1l-2.6,2l-7.8-5.3l10.5-15.5l8.6,5.9
		L163.5,35.7z"/>
	<path class="st0" d="M167.2,45.5l-7.3,7.4l-2.2-2.2l13.2-13.3l0.1,14.7l7.3-7.4l2.2,2.2l-13.2,13.3L167.2,45.5z"/>
	<path class="st0" d="M189.9,65.7l-3.1-4.8l-13.1,8.6l-1.7-2.6l13.1-8.6l-3.1-4.8l2.6-1.7l8,12.2L189.9,65.7z"/>
	<path class="st0" d="M196.1,71.7l-17,7.9l-1.3-2.8l17-7.9L196.1,71.7z"/>
	<path class="st0" d="M198.5,77.4l3.1,9.9l-3.3-0.1l-1.9-6l-4.5,1.4l1.6,5l-3,0.9l-1.6-5l-7.5,2.3l-0.9-3L198.5,77.4z"/>
	<path class="st0" d="M193,99.5l9.9-7.5l0.4,3.6l-6.6,5l7.6,3.3l0.4,3.6l-11.4-4.9l-8,1l-0.4-3.1L193,99.5z"/>
	<path class="st0" d="M190.7,118.4c-0.1,1.4-1.4,2.5-2.8,2.4c-1.4-0.1-2.5-1.4-2.4-2.8s1.4-2.5,2.8-2.4S190.8,117,190.7,118.4z"/>
	<path class="st0" d="M183.4,131.1l0.9-3l17.9,5.5l-1.9,6.2c-1.1,3.7-5.1,5.8-8.8,4.7c-2.6-0.8-4.4-3-4.9-5.5l-6.2,1.5l1.2-4
		l5.3-1.3l0.9-2.8L183.4,131.1z M197.4,138.9l1-3.2l-7.5-2.3l-1,3.2c-0.6,2.1,0.5,4.3,2.6,4.9C194.5,142.2,196.7,141,197.4,138.9z"
		/>
	<path class="st0" d="M188.8,158.9l2.9-5.5l-4.2-2.2l-2.4,4.6l-2.8-1.4l2.4-4.6l-4.2-2.2l-3.4,6.5l-2.3-2.4l4.3-8.3l16.6,8.7
		l-4.8,9.2L188.8,158.9z"/>
	<path class="st0" d="M166.2,168.2c-0.3-2.4,0.3-4.9,1.9-6.9c3.2-4.1,9.1-4.8,13.2-1.6c4.1,3.2,4.8,9.1,1.6,13.2
		c-1.6,2-3.9,3.2-6.3,3.5l-0.4-3.1c1.6-0.2,3.1-1,4.2-2.3c2.1-2.7,1.7-6.6-1.1-8.8c-2.7-2.1-6.6-1.7-8.8,1.1c-1.1,1.4-1.5,3-1.3,4.6
		L166.2,168.2z"/>
	<path class="st0" d="M166.9,188.5c-4.1,3.2-10,2.4-13.2-1.6s-2.4-10,1.6-13.2c4.1-3.2,10-2.4,13.2,1.6
		C171.8,179.4,171,185.3,166.9,188.5z M165,186c2.7-2.1,3.2-6,1.1-8.8c-2.1-2.7-6-3.2-8.8-1.1c-2.7,2.1-3.2,6-1.1,8.8
		C158.4,187.7,162.3,188.1,165,186z"/>
	<path class="st0" d="M143,181.7l2.8-1.3l7.8,17.1l-5.9,2.7c-3.5,1.6-7.7,0.1-9.3-3.5c-1.1-2.5-0.7-5.3,0.9-7.3l-5.2-3.6l3.8-1.7
		l4.5,3.1l2.7-1.2L143,181.7z M146.4,197.3l3.1-1.4l-3.2-7.1l-3.1,1.4c-2,0.9-2.8,3.2-1.9,5.2C142.1,197.4,144.4,198.2,146.4,197.3z
		"/>
	<path class="st0" d="M130.1,206.3c-5,1.1-10-2.1-11.1-7.1c-1.1-5,2-10,7-11.2l5.2-1.2l4.1,18.3L130.1,206.3z M129.4,203.3l2.2-0.5
		l-2.7-12.2l-2.2,0.5c-3.3,0.8-5.4,4.1-4.6,7.4C122.8,201.8,126.1,203.9,129.4,203.3z"/>
	<path class="st0" d="M107.3,195.6c-1.4,0-2.6-1.2-2.6-2.6c0-1.4,1.2-2.6,2.6-2.6c1.4,0,2.6,1.2,2.6,2.6
		C109.9,194.4,108.8,195.5,107.3,195.6z"/>
	<path class="st0" d="M93.1,208.4l-3.1-0.7l2.5-11.2c0.5-2.2-0.9-4.5-3.2-5c-2.2-0.5-4.5,0.9-5,3.2l-2.5,11.2l-3.1-0.7l2.5-11.5
		c1-3.8,4.8-6.1,8.6-5.3c3.8,0.8,6.3,4.6,5.6,8.4L93.1,208.4z"/>
	<path class="st0" d="M77.8,184.8l2.8,1.3l-7.8,17.1l-5.9-2.7c-3.5-1.6-5.1-5.8-3.5-9.3c1.6-3.5,5.8-5.1,9.3-3.5l3.1,1.4L77.8,184.8
		z M68.2,197.7l3.1,1.4l3.2-7.1l-3.1-1.4c-2-0.9-4.3,0-5.2,1.9C65.4,194.4,66.2,196.8,68.2,197.7z"/>
	<path class="st0" d="M52.9,192.8l8.9-12.8l-6-4.2l2.6-2l7.7,5.4l-10.7,15.4L52.9,192.8z"/>
	<path class="st0" d="M36.2,178.7c-3.6-3.7-3.4-9.7,0.3-13.3c3.7-3.6,9.7-3.4,13.3,0.3c3.6,3.8,3.4,9.7-0.3,13.3
		C45.7,182.6,39.8,182.5,36.2,178.7z M38.5,176.6c2.4,2.5,6.3,2.6,8.8,0.2s2.6-6.3,0.2-8.8c-2.4-2.5-6.3-2.6-8.8-0.2
		C36.2,170.1,36.1,174.1,38.5,176.6z"/>
	<path class="st0" d="M34.8,144.3l1.8,3.1l-2.1,2.7l3.5,5.9l3.3-0.5l1.8,3.1L22.9,161L34.8,144.3z M34.7,156.5l-2.2-3.7l-3.4,4.5
		L34.7,156.5z"/>
	<path class="st0" d="M14.7,143.2c-1.5-4.9,1.2-10.1,6.1-11.7c4.9-1.6,10.1,1.1,11.8,5.9l1.6,5.1l-17.9,5.7L14.7,143.2z M17.6,142.3
		l0.7,2.1l11.9-3.8l-0.7-2.1c-1.1-3.2-4.6-5-7.8-3.9C18.5,135.6,16.7,139,17.6,142.3z"/>
	<path class="st0" d="M23.3,119.6c-0.1-1.4,0.9-2.7,2.3-2.8s2.7,0.9,2.8,2.3s-0.9,2.7-2.3,2.8C24.7,122,23.5,121,23.3,119.6z"/>
</g>
</svg>
